<svg width="110" height="120" viewBox="0 0 110 120" fill="none" xmlns="http://www.w3.org/2000/svg">
<mask id="path-1-inside-1_304_702" fill="white">
<path fill-rule="evenodd" clip-rule="evenodd" d="M89.2184 10.2544L81.3489 0L73.4795 10.2544H0V120H110V10.2544H89.2184Z"/>
</mask>
<path fill-rule="evenodd" clip-rule="evenodd" d="M89.2184 10.2544L81.3489 0L73.4795 10.2544H0V120H110V10.2544H89.2184Z" fill="white"/>
<path d="M81.3489 0L82.5389 -0.913214L81.3489 -2.46383L80.1589 -0.913214L81.3489 0ZM89.2184 10.2544L88.0284 11.1676L88.4787 11.7544H89.2184V10.2544ZM73.4795 10.2544V11.7544H74.2191L74.6694 11.1676L73.4795 10.2544ZM0 10.2544V8.75441H-1.5V10.2544H0ZM0 120H-1.5V121.5H0V120ZM110 120V121.5H111.5V120H110ZM110 10.2544H111.5V8.75441H110V10.2544ZM80.1589 0.913214L88.0284 11.1676L90.4084 9.34119L82.5389 -0.913214L80.1589 0.913214ZM74.6694 11.1676L82.5389 0.913214L80.1589 -0.913214L72.2895 9.34119L74.6694 11.1676ZM0 11.7544H73.4795V8.75441H0V11.7544ZM1.5 120V10.2544H-1.5V120H1.5ZM110 118.5H0V121.5H110V118.5ZM108.5 10.2544V120H111.5V10.2544H108.5ZM89.2184 11.7544H110V8.75441H89.2184V11.7544Z" fill="#CFCFCF" mask="url(#path-1-inside-1_304_702)"/>
</svg>
