<svg width="169" height="181" viewBox="0 0 169 181" fill="none" xmlns="http://www.w3.org/2000/svg">
<mask id="path-1-inside-1_611_461" fill="var(--bg-color)">
<path fill-rule="evenodd" clip-rule="evenodd" d="M137.072 15.3828L124.981 0L112.89 15.3828H0V180.002H169V15.3828H137.072Z"/>
</mask>
<path fill-rule="evenodd" clip-rule="evenodd" d="M137.072 15.3828L124.981 0L112.89 15.3828H0V180.002H169V15.3828H137.072Z" fill="white"/>
<path d="M124.981 0L126.161 -0.926958L124.981 -2.4273L123.802 -0.926958L124.981 0ZM137.072 15.3828L135.893 16.3098L136.344 16.8828H137.072V15.3828ZM112.89 15.3828V16.8828H113.619L114.069 16.3098L112.89 15.3828ZM0 15.3828V13.8828H-1.5V15.3828H0ZM0 180.002H-1.5V181.502H0V180.002ZM169 180.002V181.502H170.5V180.002H169ZM169 15.3828H170.5V13.8828H169V15.3828ZM123.802 0.926958L135.893 16.3098L138.252 14.4559L126.161 -0.926958L123.802 0.926958ZM114.069 16.3098L126.161 0.926958L123.802 -0.926958L111.711 14.4559L114.069 16.3098ZM0 16.8828H112.89V13.8828H0V16.8828ZM1.5 180.002V15.3828H-1.5V180.002H1.5ZM169 178.502H0V181.502H169V178.502ZM167.5 15.3828V180.002H170.5V15.3828H167.5ZM137.072 16.8828H169V13.8828H137.072V16.8828Z" fill="#CFCFCF" mask="url(#path-1-inside-1_611_461)"/>
</svg>
