<svg width="150" height="150" viewBox="0 0 150 150" fill="none" xmlns="http://www.w3.org/2000/svg">
<circle cx="75" cy="75" r="75" fill="white"/>
<path fill-rule="evenodd" clip-rule="evenodd" d="M23.2443 129.28C27.4118 111.64 43.2597 98.5121 62.1737 98.5121H85.622C105.138 98.5121 121.39 112.489 124.914 130.98C140.308 117.244 150 97.254 150 75C150 33.5786 116.421 0 75 0C33.5786 0 0 33.5786 0 75C0 96.3528 8.92329 115.621 23.2443 129.28ZM102.346 56.4861C102.346 72.5547 89.3198 85.5809 73.2512 85.5809C57.1826 85.5809 44.1564 72.5547 44.1564 56.4861C44.1564 40.4174 57.1826 27.3912 73.2512 27.3912C89.3198 27.3912 102.346 40.4174 102.346 56.4861Z" fill="#D9D9D9"/>
</svg>
