<svg width="497" height="118" viewBox="0 0 497 118" fill="none" xmlns="http://www.w3.org/2000/svg">
<g filter="url(#filter0_d_535_459)">
<rect x="19" y="12.1974" width="458.947" height="79.6783" rx="10" fill="#3C5B9B"/>
<path d="M168.507 37.216V66.848H172.571V37.216H168.507ZM159.835 48V51.744H163.803V48H159.835ZM162.619 37.792V65.472H166.619V37.792H162.619ZM147.067 40.544V43.936H160.539V40.544H147.067ZM147.003 60.128C150.651 60.128 156.667 60.032 161.275 59.04L160.987 55.968C156.507 56.576 150.266 56.672 146.555 56.672L147.003 60.128ZM148.891 42.72V57.568H152.699V42.72H148.891ZM154.843 42.72V57.568H158.683V42.72H154.843ZM196.6 37.184V66.912H200.888V37.184H196.6ZM184.92 39.264C180.44 39.264 177.144 43.36 177.144 49.824C177.144 56.352 180.44 60.448 184.92 60.448C189.4 60.448 192.696 56.352 192.696 49.824C192.696 43.36 189.4 39.264 184.92 39.264ZM184.92 43.136C187.128 43.136 188.6 45.472 188.6 49.824C188.6 54.24 187.128 56.608 184.92 56.608C182.712 56.608 181.208 54.24 181.208 49.824C181.208 45.472 182.712 43.136 184.92 43.136ZM216.726 38.912V41.056C216.726 45.312 213.046 50.016 206.358 51.168L208.182 54.688C215.862 53.184 220.438 47.488 220.438 41.056V38.912H216.726ZM217.59 38.912V41.056C217.59 47.584 222.134 53.184 229.814 54.688L231.638 51.168C224.918 50.016 221.27 45.408 221.27 41.056V38.912H217.59ZM205.75 59.776V63.232H232.566V59.776H205.75ZM246.387 53.888V58.368H250.611V53.888H246.387ZM235.155 51.328V54.688H261.939V51.328H235.155ZM238.131 57.184V60.544H254.451V66.848H258.707V57.184H238.131ZM238.579 37.952V49.408H258.547V37.952H254.323V40.576H242.771V37.952H238.579ZM242.771 43.744H254.323V46.08H242.771V43.744ZM278.001 38.688C271.76 38.688 266.929 42.112 266.929 47.264C266.929 52.448 271.76 55.84 278.001 55.84C284.241 55.84 289.073 52.448 289.073 47.264C289.073 42.112 284.241 38.688 278.001 38.688ZM278.001 42.144C282.033 42.144 284.913 44.064 284.913 47.264C284.913 50.432 282.033 52.352 278.001 52.352C273.969 52.352 271.089 50.432 271.089 47.264C271.089 44.064 273.969 42.144 278.001 42.144ZM264.625 59.808V63.296H291.441V59.808H264.625ZM294.062 60.128V63.584H320.878V60.128H294.062ZM305.294 54.528V61.536H309.55V54.528H305.294ZM297.07 39.136V42.496H313.646V45.664H297.134V53.984H301.358V48.992H317.87V39.136H297.07ZM297.134 52.288V55.712H318.542V52.288H297.134ZM331.437 60.128V63.584H358.253V60.128H331.437ZM342.669 54.528V61.536H346.925V54.528H342.669ZM334.445 39.136V42.496H351.021V45.664H334.509V53.984H338.733V48.992H355.245V39.136H334.445ZM334.509 52.288V55.712H355.917V52.288H334.509ZM363.595 39.936V43.296H382.379V39.936H363.595ZM360.875 59.52V62.976H387.659V59.52H360.875ZM380.139 39.936V43.456C380.139 47.456 380.139 51.68 379.051 57.376L383.307 57.728C384.363 51.648 384.363 47.616 384.363 43.456V39.936H380.139ZM410.632 37.248V58.528H414.92V37.248H410.632ZM395.176 62.944V66.336H415.656V62.944H395.176ZM395.176 56.384V64.32H399.432V56.384H395.176ZM398.792 39.104C394.248 39.104 390.728 42.24 390.728 46.624C390.728 50.976 394.248 54.144 398.792 54.144C403.336 54.144 406.824 50.976 406.824 46.624C406.824 42.24 403.336 39.104 398.792 39.104ZM398.792 42.784C400.968 42.784 402.664 44.192 402.664 46.624C402.664 49.024 400.968 50.432 398.792 50.432C396.584 50.432 394.888 49.024 394.888 46.624C394.888 44.192 396.584 42.784 398.792 42.784Z" fill="white"/>
</g>
<path d="M61.9908 43C61.9908 34.7157 68.7065 28 76.9908 28H81.9677V76.7436H61.9908V43Z" fill="white"/>
<path d="M71.5797 41.3778C71.5797 38.6164 73.8182 36.3778 76.5797 36.3778H81.9676V46.2788H71.5797V41.3778Z" fill="#3C5B9B"/>
<rect x="71.5797" y="55.4183" width="10.388" height="21.3253" fill="#3C5B9B"/>
<path d="M81.9676 46.2789L84.7357 55.4183H79.1996L81.9676 46.2789Z" fill="#3C5B9B"/>
<rect x="54" y="46.2789" width="7.99075" height="9.13942" fill="white"/>
<defs>
<filter id="filter0_d_535_459" x="0" y="0.197388" width="496.947" height="117.678" filterUnits="userSpaceOnUse" color-interpolation-filters="sRGB">
<feFlood flood-opacity="0" result="BackgroundImageFix"/>
<feColorMatrix in="SourceAlpha" type="matrix" values="0 0 0 0 0 0 0 0 0 0 0 0 0 0 0 0 0 0 127 0" result="hardAlpha"/>
<feOffset dy="7"/>
<feGaussianBlur stdDeviation="9.5"/>
<feComposite in2="hardAlpha" operator="out"/>
<feColorMatrix type="matrix" values="0 0 0 0 0 0 0 0 0 0 0 0 0 0 0 0 0 0 0.15 0"/>
<feBlend mode="normal" in2="BackgroundImageFix" result="effect1_dropShadow_535_459"/>
<feBlend mode="normal" in="SourceGraphic" in2="effect1_dropShadow_535_459" result="shape"/>
</filter>
</defs>
</svg>
