<svg width="44" height="40" viewBox="0 0 44 40" fill="none" xmlns="http://www.w3.org/2000/svg">
<path fill-rule="evenodd" clip-rule="evenodd" d="M44 16.2603C44 25.2407 34.2933 32.5207 22.3195 32.5207C20.1375 32.5207 18.0308 32.2789 16.0444 31.8292L6.8769 38.9047C6.47875 39.212 5.92711 38.8052 6.10296 38.334L9.45558 29.3504C4.1076 26.3893 0.639038 21.6286 0.639038 16.2603C0.639038 7.28001 10.3457 0 22.3195 0C34.2933 0 44 7.28001 44 16.2603ZM13.5 19C14.8807 19 16 17.8807 16 16.5C16 15.1193 14.8807 14 13.5 14C12.1193 14 11 15.1193 11 16.5C11 17.8807 12.1193 19 13.5 19ZM25 16.5C25 17.8807 23.8807 19 22.5 19C21.1193 19 20 17.8807 20 16.5C20 15.1193 21.1193 14 22.5 14C23.8807 14 25 15.1193 25 16.5ZM31.5 19C32.8807 19 34 17.8807 34 16.5C34 15.1193 32.8807 14 31.5 14C30.1193 14 29 15.1193 29 16.5C29 17.8807 30.1193 19 31.5 19Z" fill="#CFCFCF"/>
</svg>
