<svg width="510" height="89" viewBox="0 0 510 89" fill="none" xmlns="http://www.w3.org/2000/svg">
<rect x="1.16797" y="1.07812" width="508.305" height="87.421" rx="9.5" fill="white" stroke="#CFCFCF"/>
<path d="M200.571 30.944V34.304H219.163V30.944H200.571ZM197.531 43.552V46.976H224.315V43.552H197.531ZM208.635 45.952V58.88H212.923V45.952H208.635ZM216.987 30.944V33.568C216.987 36.64 216.987 40.16 215.835 45.12L220.027 45.6C221.179 40.352 221.179 36.768 221.179 33.568V30.944H216.987ZM230.232 30.4V33.76H249.016V30.4H230.232ZM226.968 39.648V43.008H253.784V39.648H226.968ZM246.456 30.4V32.416C246.456 34.496 246.456 36.896 245.688 40.256L249.88 40.64C250.648 37.216 250.648 34.528 250.648 32.416V30.4H246.456ZM229.944 45.024V48.32H246.328V50.24H229.976V56.384H234.232V53.376H250.552V45.024H229.944ZM229.976 55.36V58.656H251.32V55.36H229.976ZM256.406 52.128V55.584H283.222V52.128H256.406ZM267.638 46.528V53.536H271.894V46.528H267.638ZM259.414 31.136V34.496H275.99V37.664H259.478V45.984H263.702V40.992H280.214V31.136H259.414ZM259.478 44.288V47.712H280.886V44.288H259.478ZM293.781 52.128V55.584H320.597V52.128H293.781ZM305.013 46.528V53.536H309.269V46.528H305.013ZM296.789 31.136V34.496H313.365V37.664H296.853V45.984H301.077V40.992H317.589V31.136H296.789ZM296.853 44.288V47.712H318.261V44.288H296.853ZM325.938 31.936V35.296H344.722V31.936H325.938ZM323.218 51.52V54.976H350.002V51.52H323.218ZM342.482 31.936V35.456C342.482 39.456 342.482 43.68 341.394 49.376L345.65 49.728C346.706 43.648 346.706 39.616 346.706 35.456V31.936H342.482ZM372.976 29.248V50.528H377.264V29.248H372.976ZM357.52 54.944V58.336H378V54.944H357.52ZM357.52 48.384V56.32H361.776V48.384H357.52ZM361.136 31.104C356.592 31.104 353.072 34.24 353.072 38.624C353.072 42.976 356.592 46.144 361.136 46.144C365.68 46.144 369.168 42.976 369.168 38.624C369.168 34.24 365.68 31.104 361.136 31.104ZM361.136 34.784C363.312 34.784 365.008 36.192 365.008 38.624C365.008 41.024 363.312 42.432 361.136 42.432C358.928 42.432 357.232 41.024 357.232 38.624C357.232 36.192 358.928 34.784 361.136 34.784Z" fill="#666666"/>
<path d="M56.7012 40.8594H77.4198V47.7112H56.7012V40.8594Z" fill="#4888F4"/>
<path d="M33.1047 40.7206C32.1653 45.7478 32.998 50.9451 35.4611 55.4271L43.0804 51.24C41.5861 48.5208 41.0809 45.3675 41.6508 42.3176C41.8902 41.0364 42.3132 39.8067 42.8993 38.6633L35.4611 34.135C34.3392 36.1764 33.5389 38.3971 33.1047 40.7206Z" fill="#F9BF13"/>
<path d="M46.6122 65.3005C51.3595 67.2026 56.6195 67.3998 61.4959 65.8585C63.9167 65.0933 66.1686 63.9233 68.1642 62.4146L62.2566 55.9507C61.2183 56.6408 60.0815 57.1875 58.8757 57.5687C55.9172 58.5038 52.726 58.3841 49.8458 57.2301C46.9657 56.0761 44.5747 53.9592 43.0804 51.24L35.4611 55.4271C37.9241 59.9091 41.865 63.3984 46.6122 65.3005Z" fill="#3CA95A"/>
<path fill-rule="evenodd" clip-rule="evenodd" d="M40.6129 27.8575C38.5072 29.6269 36.7664 31.7596 35.4611 34.135L42.8993 38.6633C43.7084 37.085 44.8285 35.6712 46.206 34.5136C48.5815 32.5175 51.5755 31.4068 54.678 31.3708C57.7806 31.3347 60.7996 32.3756 63.2208 34.3159L68.6578 27.5317C64.6671 24.3335 59.6909 22.6179 54.5771 22.6773C49.4632 22.7367 44.5282 24.5674 40.6129 27.8575Z" fill="#EA4E42"/>
<path d="M73.355 56.8478C76.1468 52.5628 77.3663 47.4424 76.806 42.359L68.1642 43.3116C68.5042 46.3957 67.7643 49.5022 66.0706 52.1019C65.0672 53.642 63.7658 54.9477 62.2566 55.9507L68.1642 62.4146C70.1886 60.8843 71.9492 59.0056 73.355 56.8478Z" fill="#4888F4"/>
</svg>
