<svg width="497" height="118" viewBox="0 0 497 118" fill="none" xmlns="http://www.w3.org/2000/svg">
<g filter="url(#filter0_d_535_463)">
<rect x="19" y="12" width="458.947" height="79.6783" rx="10" fill="#FFCD29"/>
<path d="M162.074 41.4932V42.0052C162.074 50.3252 159.962 55.9892 150.746 60.6292L153.018 63.8612C164.058 58.2612 166.234 50.6452 166.234 41.4932H162.074ZM152.57 41.4932V44.8532H164.602V41.4932H152.57ZM162.17 48.7572L151.034 49.3972L151.546 53.0452L162.17 52.0212V48.7572ZM169.818 38.6132V68.2452H174.106V38.6132H169.818ZM172.986 49.9412V53.4292H178.202V49.9412H172.986ZM191.511 41.4932V42.0052C191.511 50.3252 189.399 55.9892 180.183 60.6292L182.455 63.8612C193.495 58.2612 195.671 50.6452 195.671 41.4932H191.511ZM182.007 41.4932V44.8532H194.039V41.4932H182.007ZM191.607 48.7572L180.471 49.3972L180.983 53.0452L191.607 52.0212V48.7572ZM199.255 38.6132V68.2452H203.543V38.6132H199.255ZM202.423 49.9412V53.4292H207.639V49.9412H202.423ZM221.013 55.3172V62.0692H225.269V55.3172H221.013ZM223.157 40.1492C216.821 40.1492 212.085 43.3812 212.085 48.3092C212.085 53.3012 216.821 56.5012 223.157 56.5012C229.493 56.5012 234.229 53.3012 234.229 48.3092C234.229 43.3812 229.493 40.1492 223.157 40.1492ZM223.157 43.5092C227.221 43.5092 230.037 45.3012 230.037 48.3092C230.037 51.3812 227.221 53.1412 223.157 53.1412C219.093 53.1412 216.277 51.3812 216.277 48.3092C216.277 45.3012 219.093 43.5092 223.157 43.5092ZM209.781 61.3972V64.8532H236.597V61.3972H209.781ZM239.154 54.3572V57.7172H265.97V54.3572H239.154ZM250.418 50.8692V55.2532H254.674V50.8692H250.418ZM242.162 59.4772V62.8372H258.45V68.2772H262.706V59.4772H242.162ZM242.482 49.0132V52.2452H263.122V49.0132H242.482ZM242.482 39.3172V50.6452H246.706V42.5492H262.898V39.3172H242.482ZM245.522 44.1812V47.2852H262.226V44.1812H245.522ZM282.032 40.1172C275.792 40.1172 270.96 43.5412 270.96 48.6932C270.96 53.8772 275.792 57.2692 282.032 57.2692C288.272 57.2692 293.104 53.8772 293.104 48.6932C293.104 43.5412 288.272 40.1172 282.032 40.1172ZM282.032 43.5732C286.064 43.5732 288.944 45.4932 288.944 48.6932C288.944 51.8612 286.064 53.7812 282.032 53.7812C278 53.7812 275.12 51.8612 275.12 48.6932C275.12 45.4932 278 43.5732 282.032 43.5732ZM268.656 61.2372V64.7252H295.472V61.2372H268.656ZM298.093 61.5572V65.0132H324.909V61.5572H298.093ZM309.325 55.9572V62.9652H313.581V55.9572H309.325ZM301.101 40.5652V43.9252H317.677V47.0932H301.165V55.4132H305.389V50.4212H321.901V40.5652H301.101ZM301.165 53.7172V57.1412H322.573V53.7172H301.165ZM335.468 61.5572V65.0132H362.284V61.5572H335.468ZM346.7 55.9572V62.9652H350.956V55.9572H346.7ZM338.476 40.5652V43.9252H355.052V47.0932H338.54V55.4132H342.764V50.4212H359.276V40.5652H338.476ZM338.54 53.7172V57.1412H359.948V53.7172H338.54ZM367.626 41.3652V44.7252H386.41V41.3652H367.626ZM364.906 60.9492V64.4052H391.69V60.9492H364.906ZM384.17 41.3652V44.8852C384.17 48.8852 384.17 53.1092 383.082 58.8052L387.338 59.1572C388.394 53.0772 388.394 49.0452 388.394 44.8852V41.3652H384.17ZM414.663 38.6772V59.9572H418.951V38.6772H414.663ZM399.207 64.3732V67.7652H419.687V64.3732H399.207ZM399.207 57.8132V65.7492H403.463V57.8132H399.207ZM402.823 40.5332C398.279 40.5332 394.759 43.6692 394.759 48.0532C394.759 52.4052 398.279 55.5732 402.823 55.5732C407.367 55.5732 410.855 52.4052 410.855 48.0532C410.855 43.6692 407.367 40.5332 402.823 40.5332ZM402.823 44.2132C404.999 44.2132 406.695 45.6212 406.695 48.0532C406.695 50.4532 404.999 51.8612 402.823 51.8612C400.615 51.8612 398.919 50.4532 398.919 48.0532C398.919 45.6212 400.615 44.2132 402.823 44.2132Z" fill="white"/>
<ellipse cx="69.8928" cy="50.5955" rx="21.573" ry="16.1798" fill="#3B1C21"/>
<path d="M54.5337 73.1223C54.1356 73.4296 53.584 73.0229 53.7598 72.5517L60.4016 54.7545C60.5177 54.4433 60.8994 54.3297 61.1668 54.5269L69.5631 60.7176C69.8304 60.9147 69.8348 61.3129 69.5718 61.5159L54.5337 73.1223Z" fill="#3B1C21"/>
</g>
<defs>
<filter id="filter0_d_535_463" x="0" y="0" width="496.947" height="117.678" filterUnits="userSpaceOnUse" color-interpolation-filters="sRGB">
<feFlood flood-opacity="0" result="BackgroundImageFix"/>
<feColorMatrix in="SourceAlpha" type="matrix" values="0 0 0 0 0 0 0 0 0 0 0 0 0 0 0 0 0 0 127 0" result="hardAlpha"/>
<feOffset dy="7"/>
<feGaussianBlur stdDeviation="9.5"/>
<feComposite in2="hardAlpha" operator="out"/>
<feColorMatrix type="matrix" values="0 0 0 0 0 0 0 0 0 0 0 0 0 0 0 0 0 0 0.15 0"/>
<feBlend mode="normal" in2="BackgroundImageFix" result="effect1_dropShadow_535_463"/>
<feBlend mode="normal" in="SourceGraphic" in2="effect1_dropShadow_535_463" result="shape"/>
</filter>
</defs>
</svg>
