<svg width="510" height="89" viewBox="0 0 510 89" fill="none" xmlns="http://www.w3.org/2000/svg">
<rect width="509.305" height="88.421" rx="10" fill="#FFCD29"/>
<path d="M172.375 33.064V33.576C172.375 41.896 170.263 47.56 161.047 52.2L163.319 55.432C174.359 49.832 176.535 42.216 176.535 33.064H172.375ZM162.871 33.064V36.424H174.903V33.064H162.871ZM172.471 40.328L161.335 40.968L161.847 44.616L172.471 43.592V40.328ZM180.119 30.184V59.816H184.407V30.184H180.119ZM183.287 41.512V45H188.503V41.512H183.287ZM201.812 33.064V33.576C201.812 41.896 199.7 47.56 190.484 52.2L192.756 55.432C203.796 49.832 205.972 42.216 205.972 33.064H201.812ZM192.308 33.064V36.424H204.34V33.064H192.308ZM201.908 40.328L190.772 40.968L191.284 44.616L201.908 43.592V40.328ZM209.556 30.184V59.816H213.844V30.184H209.556ZM212.724 41.512V45H217.94V41.512H212.724ZM231.314 46.888V53.64H235.57V46.888H231.314ZM233.458 31.72C227.122 31.72 222.386 34.952 222.386 39.88C222.386 44.872 227.122 48.072 233.458 48.072C239.794 48.072 244.53 44.872 244.53 39.88C244.53 34.952 239.794 31.72 233.458 31.72ZM233.458 35.08C237.522 35.08 240.338 36.872 240.338 39.88C240.338 42.952 237.522 44.712 233.458 44.712C229.394 44.712 226.578 42.952 226.578 39.88C226.578 36.872 229.394 35.08 233.458 35.08ZM220.082 52.968V56.424H246.898V52.968H220.082ZM249.455 45.928V49.288H276.271V45.928H249.455ZM260.719 42.44V46.824H264.975V42.44H260.719ZM252.463 51.048V54.408H268.751V59.848H273.007V51.048H252.463ZM252.783 40.584V43.816H273.423V40.584H252.783ZM252.783 30.888V42.216H257.007V34.12H273.199V30.888H252.783ZM255.823 35.752V38.856H272.527V35.752H255.823ZM292.333 31.688C286.093 31.688 281.261 35.112 281.261 40.264C281.261 45.448 286.093 48.84 292.333 48.84C298.573 48.84 303.405 45.448 303.405 40.264C303.405 35.112 298.573 31.688 292.333 31.688ZM292.333 35.144C296.365 35.144 299.245 37.064 299.245 40.264C299.245 43.432 296.365 45.352 292.333 45.352C288.301 45.352 285.421 43.432 285.421 40.264C285.421 37.064 288.301 35.144 292.333 35.144ZM278.957 52.808V56.296H305.773V52.808H278.957ZM308.394 53.128V56.584H335.21V53.128H308.394ZM319.626 47.528V54.536H323.882V47.528H319.626ZM311.402 32.136V35.496H327.978V38.664H311.466V46.984H315.69V41.992H332.202V32.136H311.402ZM311.466 45.288V48.712H332.874V45.288H311.466ZM345.769 53.128V56.584H372.585V53.128H345.769ZM357.001 47.528V54.536H361.257V47.528H357.001ZM348.777 32.136V35.496H365.353V38.664H348.841V46.984H353.065V41.992H369.577V32.136H348.777ZM348.841 45.288V48.712H370.249V45.288H348.841ZM377.927 32.936V36.296H396.711V32.936H377.927ZM375.207 52.52V55.976H401.991V52.52H375.207ZM394.471 32.936V36.456C394.471 40.456 394.471 44.68 393.383 50.376L397.639 50.728C398.695 44.648 398.695 40.616 398.695 36.456V32.936H394.471ZM424.964 30.248V51.528H429.252V30.248H424.964ZM409.508 55.944V59.336H429.988V55.944H409.508ZM409.508 49.384V57.32H413.764V49.384H409.508ZM413.124 32.104C408.58 32.104 405.06 35.24 405.06 39.624C405.06 43.976 408.58 47.144 413.124 47.144C417.668 47.144 421.156 43.976 421.156 39.624C421.156 35.24 417.668 32.104 413.124 32.104ZM413.124 35.784C415.3 35.784 416.996 37.192 416.996 39.624C416.996 42.024 415.3 43.432 413.124 43.432C410.916 43.432 409.22 42.024 409.22 39.624C409.22 37.192 410.916 35.784 413.124 35.784Z" fill="white"/>
<ellipse cx="56.4773" cy="42.8301" rx="23.9402" ry="17.9551" fill="#3B1C21"/>
<path d="M39.2821 67.9461C38.8839 68.2534 38.3323 67.8466 38.5082 67.3754L45.9713 47.3773C46.0875 47.0661 46.4692 46.9526 46.7365 47.1497L56.1711 54.1061C56.4385 54.3032 56.4429 54.7014 56.1799 54.9043L39.2821 67.9461Z" fill="#3B1C21"/>
</svg>
