<svg width="497" height="118" viewBox="0 0 497 118" fill="none" xmlns="http://www.w3.org/2000/svg">
<g filter="url(#filter0_d_535_469)">
<rect x="19" y="12" width="459" height="80" rx="10" fill="#11CA48"/>
</g>
<path d="M174.4 40.032V57.248H178.624V40.032H174.4ZM174.4 56.16V59.776H176.48C180.256 59.776 183.456 59.648 187.008 58.88L186.464 55.328C183.04 56.032 180.064 56.16 176.48 56.16H174.4ZM194.752 37.216V66.848H198.816V37.216H194.752ZM182.656 46.56V49.984H189.408V46.56H182.656ZM188.48 37.728V65.536H192.448V37.728H188.48ZM223.038 37.184V66.912H227.326V37.184H223.038ZM211.358 39.264C206.878 39.264 203.582 43.36 203.582 49.824C203.582 56.352 206.878 60.448 211.358 60.448C215.838 60.448 219.134 56.352 219.134 49.824C219.134 43.36 215.838 39.264 211.358 39.264ZM211.358 43.136C213.566 43.136 215.038 45.472 215.038 49.824C215.038 54.24 213.566 56.608 211.358 56.608C209.15 56.608 207.646 54.24 207.646 49.824C207.646 45.472 209.15 43.136 211.358 43.136ZM252.795 37.184V66.912H257.019V37.184H252.795ZM246.075 47.616V51.04H254.011V47.616H246.075ZM233.243 39.52V59.936H247.483V39.52H243.291V46.688H237.467V39.52H233.243ZM237.467 49.984H243.291V56.512H237.467V49.984ZM261.625 60.128V63.584H288.441V60.128H261.625ZM272.857 54.528V61.536H277.113V54.528H272.857ZM264.633 39.136V42.496H281.209V45.664H264.697V53.984H268.921V48.992H285.433V39.136H264.633ZM264.697 52.288V55.712H286.105V52.288H264.697ZM299 60.128V63.584H325.816V60.128H299ZM310.232 54.528V61.536H314.488V54.528H310.232ZM302.008 39.136V42.496H318.584V45.664H302.072V53.984H306.296V48.992H322.808V39.136H302.008ZM302.072 52.288V55.712H323.48V52.288H302.072ZM331.157 39.936V43.296H349.941V39.936H331.157ZM328.437 59.52V62.976H355.221V59.52H328.437ZM347.701 39.936V43.456C347.701 47.456 347.701 51.68 346.613 57.376L350.869 57.728C351.925 51.648 351.925 47.616 351.925 43.456V39.936H347.701ZM378.195 37.248V58.528H382.483V37.248H378.195ZM362.739 62.944V66.336H383.219V62.944H362.739ZM362.739 56.384V64.32H366.995V56.384H362.739ZM366.355 39.104C361.811 39.104 358.291 42.24 358.291 46.624C358.291 50.976 361.811 54.144 366.355 54.144C370.899 54.144 374.387 50.976 374.387 46.624C374.387 42.24 370.899 39.104 366.355 39.104ZM366.355 42.784C368.531 42.784 370.227 44.192 370.227 46.624C370.227 49.024 368.531 50.432 366.355 50.432C364.147 50.432 362.451 49.024 362.451 46.624C362.451 44.192 364.147 42.784 366.355 42.784Z" fill="white"/>
<path d="M85.1108 35.0909V70H77.2017L64.5881 51.6591H64.3835V70H54.9062V35.0909H62.9517L75.3608 53.3636H75.6335V35.0909H85.1108Z" fill="white"/>
<defs>
<filter id="filter0_d_535_469" x="0" y="0" width="497" height="118" filterUnits="userSpaceOnUse" color-interpolation-filters="sRGB">
<feFlood flood-opacity="0" result="BackgroundImageFix"/>
<feColorMatrix in="SourceAlpha" type="matrix" values="0 0 0 0 0 0 0 0 0 0 0 0 0 0 0 0 0 0 127 0" result="hardAlpha"/>
<feOffset dy="7"/>
<feGaussianBlur stdDeviation="9.5"/>
<feComposite in2="hardAlpha" operator="out"/>
<feColorMatrix type="matrix" values="0 0 0 0 0 0 0 0 0 0 0 0 0 0 0 0 0 0 0.15 0"/>
<feBlend mode="normal" in2="BackgroundImageFix" result="effect1_dropShadow_535_469"/>
<feBlend mode="normal" in="SourceGraphic" in2="effect1_dropShadow_535_469" result="shape"/>
</filter>
</defs>
</svg>
