<svg width="510" height="89" viewBox="0 0 510 89" fill="none" xmlns="http://www.w3.org/2000/svg">
<rect width="509.305" height="88.421" rx="10" fill="#11CA48"/>
<path d="M187.4 32.032V49.248H191.624V32.032H187.4ZM187.4 48.16V51.776H189.48C193.256 51.776 196.456 51.648 200.008 50.88L199.464 47.328C196.04 48.032 193.064 48.16 189.48 48.16H187.4ZM207.752 29.216V58.848H211.816V29.216H207.752ZM195.656 38.56V41.984H202.408V38.56H195.656ZM201.48 29.728V57.536H205.448V29.728H201.48ZM236.038 29.184V58.912H240.326V29.184H236.038ZM224.358 31.264C219.878 31.264 216.582 35.36 216.582 41.824C216.582 48.352 219.878 52.448 224.358 52.448C228.838 52.448 232.134 48.352 232.134 41.824C232.134 35.36 228.838 31.264 224.358 31.264ZM224.358 35.136C226.566 35.136 228.038 37.472 228.038 41.824C228.038 46.24 226.566 48.608 224.358 48.608C222.15 48.608 220.646 46.24 220.646 41.824C220.646 37.472 222.15 35.136 224.358 35.136ZM265.795 29.184V58.912H270.019V29.184H265.795ZM259.075 39.616V43.04H267.011V39.616H259.075ZM246.243 31.52V51.936H260.483V31.52H256.291V38.688H250.467V31.52H246.243ZM250.467 41.984H256.291V48.512H250.467V41.984ZM274.625 52.128V55.584H301.441V52.128H274.625ZM285.857 46.528V53.536H290.113V46.528H285.857ZM277.633 31.136V34.496H294.209V37.664H277.697V45.984H281.921V40.992H298.433V31.136H277.633ZM277.697 44.288V47.712H299.105V44.288H277.697ZM312 52.128V55.584H338.816V52.128H312ZM323.232 46.528V53.536H327.488V46.528H323.232ZM315.008 31.136V34.496H331.584V37.664H315.072V45.984H319.296V40.992H335.808V31.136H315.008ZM315.072 44.288V47.712H336.48V44.288H315.072ZM344.157 31.936V35.296H362.941V31.936H344.157ZM341.437 51.52V54.976H368.221V51.52H341.437ZM360.701 31.936V35.456C360.701 39.456 360.701 43.68 359.613 49.376L363.869 49.728C364.925 43.648 364.925 39.616 364.925 35.456V31.936H360.701ZM391.195 29.248V50.528H395.483V29.248H391.195ZM375.739 54.944V58.336H396.219V54.944H375.739ZM375.739 48.384V56.32H379.995V48.384H375.739ZM379.355 31.104C374.811 31.104 371.291 34.24 371.291 38.624C371.291 42.976 374.811 46.144 379.355 46.144C383.899 46.144 387.387 42.976 387.387 38.624C387.387 34.24 383.899 31.104 379.355 31.104ZM379.355 34.784C381.531 34.784 383.227 36.192 383.227 38.624C383.227 41.024 381.531 42.432 379.355 42.432C377.147 42.432 375.451 41.024 375.451 38.624C375.451 36.192 377.147 34.784 379.355 34.784Z" fill="white"/>
<path d="M66.6544 27.4308V62.3398H58.7453L46.1317 43.9989H45.9271V62.3398H36.4498V27.4308H44.4953L56.9044 45.7035H57.1771V27.4308H66.6544Z" fill="white"/>
</svg>
