<svg width="179" height="45" viewBox="0 0 179 45" fill="none" xmlns="http://www.w3.org/2000/svg">
<path d="M18.1699 7.49999C20.0944 4.16666 24.9056 4.16667 26.8301 7.5L37.6554 26.25C39.58 29.5833 37.1743 33.75 33.3253 33.75H11.6747C7.82567 33.75 5.42005 29.5833 7.34456 26.25L18.1699 7.49999Z" fill="#FFE040"/>
<path d="M21.496 23.88C21.368 22.904 21.24 21.896 21.112 20.856C20.984 19.816 20.88 18.784 20.8 17.76C20.72 16.736 20.68 15.752 20.68 14.808V12.936H24.736V14.808C24.736 15.768 24.696 16.768 24.616 17.808C24.536 18.848 24.432 19.888 24.304 20.928C24.176 21.952 24.04 22.936 23.896 23.88H21.496ZM22.696 30.264C22.04 30.264 21.528 30.08 21.16 29.712C20.792 29.344 20.608 28.816 20.608 28.128C20.608 27.488 20.8 26.968 21.184 26.568C21.568 26.168 22.072 25.968 22.696 25.968C23.352 25.968 23.856 26.16 24.208 26.544C24.576 26.912 24.76 27.44 24.76 28.128C24.76 28.752 24.568 29.264 24.184 29.664C23.8 30.064 23.304 30.264 22.696 30.264Z" fill="white"/>
<path d="M52.605 19.78V21.385H56.265V19.78H52.605ZM48.825 16.51V18.52C48.825 21.16 47.775 23.845 45.405 24.94L46.65 26.545C49.26 25.24 50.445 22.015 50.445 18.52V16.51H48.825ZM49.245 16.51V18.52C49.245 21.985 50.34 25.045 52.95 26.305L54.135 24.715C51.84 23.695 50.835 21.16 50.835 18.52V16.51H49.245ZM55.275 15.43V29.365H57.255V15.43H55.275ZM68.9238 15.43V29.365H70.9338V15.43H68.9238ZM60.0888 16.54V26.125H66.9138V16.54H64.9338V19.915H62.0688V16.54H60.0888ZM62.0688 21.46H64.9338V24.52H62.0688V21.46ZM78.3577 16.24V17.245C78.3577 19.24 76.6327 21.445 73.4977 21.985L74.3527 23.635C77.9527 22.93 80.0977 20.26 80.0977 17.245V16.24H78.3577ZM78.7627 16.24V17.245C78.7627 20.305 80.8927 22.93 84.4927 23.635L85.3477 21.985C82.1977 21.445 80.4877 19.285 80.4877 17.245V16.24H78.7627ZM73.2127 26.02V27.64H85.7827V26.02H73.2127ZM96.5011 16.915V17.245C96.5011 18.445 95.1661 19.81 92.1511 20.14L92.8711 21.715C96.4111 21.31 98.2711 19.45 98.2711 17.245V16.915H96.5011ZM97.4761 16.915V17.245C97.4761 19.465 99.3511 21.31 102.876 21.715L103.611 20.14C100.596 19.81 99.2461 18.46 99.2461 17.245V16.915H97.4761ZM92.7361 16.045V17.605H103.026V16.045H92.7361ZM91.5961 22.36V23.95H104.166V22.36H91.5961ZM97.0411 23.365V26.29H99.0511V23.365H97.0411ZM93.0511 27.505V29.095H102.786V27.505H93.0511ZM93.0511 25.105V28.06H95.0311V25.105H93.0511ZM114.92 15.43V29.365H116.93V15.43H114.92ZM106.085 16.54V26.125H112.91V16.54H110.93V19.915H108.065V16.54H106.085ZM108.065 21.46H110.93V24.52H108.065V21.46ZM129.073 22.42V24.865H131.068V22.42H129.073ZM123.793 21.76V23.335H136.348V21.76H123.793ZM130.048 24.325C127.033 24.325 125.218 25.225 125.218 26.83C125.218 28.435 127.033 29.335 130.048 29.335C133.048 29.335 134.863 28.435 134.863 26.83C134.863 25.225 133.048 24.325 130.048 24.325ZM130.048 25.825C131.908 25.825 132.853 26.14 132.853 26.83C132.853 27.505 131.908 27.835 130.048 27.835C128.188 27.835 127.243 27.505 127.243 26.83C127.243 26.14 128.188 25.825 130.048 25.825ZM128.698 16.75V17.095C128.698 18.175 127.363 19.405 124.318 19.66L125.008 21.22C128.593 20.89 130.468 19.18 130.468 17.095V16.75H128.698ZM129.673 16.75V17.095C129.673 19.195 131.563 20.89 135.133 21.22L135.823 19.66C132.763 19.405 131.443 18.19 131.443 17.095V16.75H129.673ZM124.933 16.015V17.59H135.223V16.015H124.933ZM147.132 15.445V22.915H149.142V15.445H147.132ZM139.902 23.515V29.185H149.142V23.515H147.162V24.805H141.867V23.515H139.902ZM141.867 26.335H147.162V27.595H141.867V26.335ZM141.582 16.015C139.422 16.015 137.802 17.38 137.802 19.3C137.802 21.22 139.422 22.585 141.582 22.585C143.742 22.585 145.347 21.22 145.347 19.3C145.347 17.38 143.742 16.015 141.582 16.015ZM141.582 17.665C142.632 17.665 143.397 18.28 143.397 19.3C143.397 20.335 142.632 20.935 141.582 20.935C140.517 20.935 139.752 20.335 139.752 19.3C139.752 18.28 140.517 17.665 141.582 17.665ZM161.006 15.445V29.335H163.001V15.445H161.006ZM152.126 16.765V25.39H154.106V16.765H152.126ZM152.126 24.22V25.915H153.356C155.471 25.915 157.766 25.765 160.151 25.27L159.926 23.62C157.631 24.07 155.381 24.22 153.356 24.22H152.126ZM174.07 15.43V29.365H176.08V15.43H174.07ZM175.63 20.575V22.21H178.09V20.575H175.63ZM165.73 24.37V26.02H166.9C169.315 26.02 171.22 25.96 173.32 25.585L173.125 23.935C171.085 24.295 169.24 24.37 166.9 24.37H165.73ZM165.73 16.72V25.165H167.71V18.325H172.21V16.72H165.73Z" fill="black"/>
</svg>
