<svg width="194" height="47" viewBox="0 0 194 47" fill="none" xmlns="http://www.w3.org/2000/svg">
<g filter="url(#filter0_di_7_787)">
<path d="M5.03409 37V2.09091H18.8068C21.4432 2.09091 23.6932 2.5625 25.5568 3.50568C27.4318 4.4375 28.858 5.76136 29.8352 7.47727C30.8239 9.18182 31.3182 11.1875 31.3182 13.4943C31.3182 15.8125 30.8182 17.8068 29.8182 19.4773C28.8182 21.1364 27.3693 22.4091 25.4716 23.2955C23.5852 24.1818 21.3011 24.625 18.6193 24.625H9.39773V18.6932H17.4261C18.8352 18.6932 20.0057 18.5 20.9375 18.1136C21.8693 17.7273 22.5625 17.1477 23.017 16.375C23.483 15.6023 23.7159 14.642 23.7159 13.4943C23.7159 12.3352 23.483 11.358 23.017 10.5625C22.5625 9.76704 21.8636 9.16477 20.9205 8.75568C19.9886 8.33523 18.8125 8.125 17.392 8.125H12.4148V37H5.03409ZM23.8864 21.1136L32.5625 37H24.4148L15.9261 21.1136H23.8864ZM42.5511 37H34.642L46.6932 2.09091H56.2045L68.2386 37H60.3295L51.5852 10.0682H51.3125L42.5511 37ZM42.0568 23.2784H60.7386V29.0398H42.0568V23.2784ZM79.821 2.09091V37H72.4403V2.09091H79.821ZM98.2685 37H85.8935V2.09091H98.3707C101.882 2.09091 104.905 2.78977 107.439 4.1875C109.973 5.57386 111.922 7.56818 113.286 10.1705C114.661 12.7727 115.348 15.8864 115.348 19.5114C115.348 23.1477 114.661 26.2727 113.286 28.8864C111.922 31.5 109.962 33.5057 107.405 34.9034C104.859 36.3011 101.814 37 98.2685 37ZM93.2741 30.6761H97.9616C100.143 30.6761 101.979 30.2898 103.467 29.517C104.967 28.733 106.092 27.5227 106.842 25.8864C107.604 24.2386 107.984 22.1136 107.984 19.5114C107.984 16.9318 107.604 14.8239 106.842 13.1875C106.092 11.5511 104.973 10.3466 103.484 9.57386C101.996 8.80114 100.161 8.41477 97.9787 8.41477H93.2741V30.6761ZM120.815 37V2.09091H128.196V16.4943H143.179V2.09091H150.543V37H143.179V22.5795H128.196V37H120.815ZM188.707 19.5455C188.707 23.3523 187.986 26.5909 186.543 29.2614C185.111 31.9318 183.156 33.9716 180.679 35.3807C178.213 36.7784 175.44 37.4773 172.361 37.4773C169.259 37.4773 166.474 36.7727 164.009 35.3636C161.543 33.9545 159.594 31.9148 158.162 29.2443C156.73 26.5739 156.014 23.3409 156.014 19.5455C156.014 15.7386 156.73 12.5 158.162 9.82955C159.594 7.15909 161.543 5.125 164.009 3.72727C166.474 2.31818 169.259 1.61364 172.361 1.61364C175.44 1.61364 178.213 2.31818 180.679 3.72727C183.156 5.125 185.111 7.15909 186.543 9.82955C187.986 12.5 188.707 15.7386 188.707 19.5455ZM181.224 19.5455C181.224 17.0795 180.855 15 180.116 13.3068C179.389 11.6136 178.361 10.3295 177.031 9.45455C175.702 8.57955 174.145 8.14205 172.361 8.14205C170.577 8.14205 169.02 8.57955 167.69 9.45455C166.361 10.3295 165.327 11.6136 164.588 13.3068C163.861 15 163.497 17.0795 163.497 19.5455C163.497 22.0114 163.861 24.0909 164.588 25.7841C165.327 27.4773 166.361 28.7614 167.69 29.6364C169.02 30.5114 170.577 30.9489 172.361 30.9489C174.145 30.9489 175.702 30.5114 177.031 29.6364C178.361 28.7614 179.389 27.4773 180.116 25.7841C180.855 24.0909 181.224 22.0114 181.224 19.5455Z" fill="#7188FF"/>
</g>
<defs>
<filter id="filter0_di_7_787" x="0.0341797" y="0.613647" width="193.673" height="45.8636" filterUnits="userSpaceOnUse" color-interpolation-filters="sRGB">
<feFlood flood-opacity="0" result="BackgroundImageFix"/>
<feColorMatrix in="SourceAlpha" type="matrix" values="0 0 0 0 0 0 0 0 0 0 0 0 0 0 0 0 0 0 127 0" result="hardAlpha"/>
<feOffset dy="4"/>
<feGaussianBlur stdDeviation="2.5"/>
<feComposite in2="hardAlpha" operator="out"/>
<feColorMatrix type="matrix" values="0 0 0 0 0 0 0 0 0 0 0 0 0 0 0 0 0 0 0.1 0"/>
<feBlend mode="normal" in2="BackgroundImageFix" result="effect1_dropShadow_7_787"/>
<feBlend mode="normal" in="SourceGraphic" in2="effect1_dropShadow_7_787" result="shape"/>
<feColorMatrix in="SourceAlpha" type="matrix" values="0 0 0 0 0 0 0 0 0 0 0 0 0 0 0 0 0 0 127 0" result="hardAlpha"/>
<feOffset dy="4"/>
<feGaussianBlur stdDeviation="2"/>
<feComposite in2="hardAlpha" operator="arithmetic" k2="-1" k3="1"/>
<feColorMatrix type="matrix" values="0 0 0 0 0 0 0 0 0 0 0 0 0 0 0 0 0 0 0.25 0"/>
<feBlend mode="normal" in2="shape" result="effect2_innerShadow_7_787"/>
</filter>
</defs>
</svg>
