<svg width="533" height="70" viewBox="0 0 533 70" fill="none" xmlns="http://www.w3.org/2000/svg">
<path d="M0.0240004 69V1.8H29.208C33.24 1.8 36.92 2.76 40.248 4.68C43.576 6.536 46.2 9.096 48.12 12.36C50.104 15.56 51.096 19.176 51.096 23.208C51.096 27.048 50.104 30.6 48.12 33.864C46.2 37.064 43.576 39.624 40.248 41.544C36.984 43.4 33.304 44.328 29.208 44.328H12.216V69H0.0240004ZM39 69L21.912 38.664L34.776 36.264L53.784 69.096L39 69ZM12.216 33.48H29.304C31.16 33.48 32.76 33.064 34.104 32.232C35.512 31.336 36.6 30.12 37.368 28.584C38.136 27.048 38.52 25.352 38.52 23.496C38.52 21.384 38.04 19.56 37.08 18.024C36.12 16.488 34.776 15.272 33.048 14.376C31.32 13.48 29.336 13.032 27.096 13.032H12.216V33.48ZM87.6923 69L113.9 1.8H125.612L151.628 69H138.668L124.268 30.792C123.948 30.024 123.5 28.808 122.924 27.144C122.412 25.48 121.836 23.688 121.196 21.768C120.556 19.784 119.98 17.96 119.468 16.296C118.956 14.568 118.572 13.32 118.316 12.552L120.716 12.456C120.332 13.736 119.884 15.176 119.372 16.776C118.86 18.376 118.316 20.04 117.74 21.768C117.164 23.496 116.588 25.16 116.012 26.76C115.5 28.36 115.02 29.8 114.572 31.08L100.172 69H87.6923ZM99.5963 53.64L103.916 42.792H134.54L139.148 53.64H99.5963ZM188.414 69V57.96H199.454V12.84H188.414V1.8H222.974V12.84H211.934V57.96H222.974V69H188.414ZM267.118 69V1.8H294.094C298.958 1.8 303.342 2.6 307.246 4.2C311.214 5.8 314.606 8.104 317.422 11.112C320.302 14.12 322.478 17.672 323.95 21.768C325.486 25.864 326.254 30.408 326.254 35.4C326.254 40.392 325.486 44.968 323.95 49.128C322.478 53.224 320.334 56.776 317.518 59.784C314.702 62.728 311.31 65 307.342 66.6C303.374 68.2 298.958 69 294.094 69H267.118ZM279.598 59.304L278.638 57.48H293.614C296.75 57.48 299.534 56.968 301.966 55.944C304.462 54.92 306.574 53.448 308.302 51.528C310.03 49.608 311.342 47.304 312.238 44.616C313.134 41.864 313.582 38.792 313.582 35.4C313.582 32.008 313.134 28.968 312.238 26.28C311.342 23.528 309.998 21.192 308.206 19.272C306.478 17.352 304.398 15.88 301.966 14.856C299.534 13.832 296.75 13.32 293.614 13.32H278.35L279.598 11.688V59.304ZM411.097 69V1.8H423.577V69H411.097ZM367.993 69V1.8H380.473V69H367.993ZM373.177 41.352V29.64H417.145V41.352H373.177ZM498.891 69.96C494.091 69.96 489.643 69.096 485.547 67.368C481.451 65.64 477.867 63.24 474.795 60.168C471.787 57.032 469.451 53.352 467.787 49.128C466.123 44.904 465.291 40.296 465.291 35.304C465.291 30.312 466.123 25.704 467.787 21.48C469.451 17.256 471.787 13.608 474.795 10.536C477.867 7.4 481.451 4.96799 485.547 3.23999C489.643 1.512 494.091 0.647999 498.891 0.647999C503.755 0.647999 508.235 1.512 512.331 3.23999C516.427 4.96799 519.979 7.4 522.987 10.536C525.995 13.672 528.331 17.352 529.995 21.576C531.659 25.736 532.491 30.312 532.491 35.304C532.491 40.232 531.659 44.808 529.995 49.032C528.331 53.256 525.995 56.936 522.987 60.072C519.979 63.208 516.427 65.64 512.331 67.368C508.235 69.096 503.755 69.96 498.891 69.96ZM498.891 58.056C501.963 58.056 504.747 57.512 507.243 56.424C509.803 55.272 512.011 53.672 513.867 51.624C515.723 49.512 517.163 47.08 518.187 44.328C519.275 41.576 519.819 38.568 519.819 35.304C519.819 32.04 519.275 29.032 518.187 26.28C517.163 23.528 515.723 21.128 513.867 19.08C512.011 16.968 509.803 15.368 507.243 14.28C504.747 13.128 501.963 12.552 498.891 12.552C495.883 12.552 493.099 13.128 490.539 14.28C487.979 15.368 485.771 16.936 483.915 18.984C482.059 21.032 480.619 23.432 479.595 26.184C478.571 28.936 478.059 31.976 478.059 35.304C478.059 38.568 478.571 41.608 479.595 44.424C480.619 47.176 482.059 49.576 483.915 51.624C485.771 53.672 487.979 55.272 490.539 56.424C493.099 57.512 495.883 58.056 498.891 58.056Z" fill="#7188FF"/>
</svg>
