<svg width="54" height="69" viewBox="0 0 54 69" fill="none" xmlns="http://www.w3.org/2000/svg">
<path d="M0.0240004 68V0.799995H29.208C33.24 0.799995 36.92 1.76 40.248 3.68C43.576 5.536 46.2 8.096 48.12 11.36C50.104 14.56 51.096 18.176 51.096 22.208C51.096 26.048 50.104 29.6 48.12 32.864C46.2 36.064 43.576 38.624 40.248 40.544C36.984 42.4 33.304 43.328 29.208 43.328H12.216V68H0.0240004ZM39 68L21.912 37.664L34.776 35.264L53.784 68.096L39 68ZM12.216 32.48H29.304C31.16 32.48 32.76 32.064 34.104 31.232C35.512 30.336 36.6 29.12 37.368 27.584C38.136 26.048 38.52 24.352 38.52 22.496C38.52 20.384 38.04 18.56 37.08 17.024C36.12 15.488 34.776 14.272 33.048 13.376C31.32 12.48 29.336 12.032 27.096 12.032H12.216V32.48Z" fill="#7188FF"/>
</svg>
